#!OML:ASF H:\Terrain\Patient Classification 1\Terrain2\Thursday\justin.ASF
:FULLY-SPECIFIED
:DEGREES
1887
root -0.643312 20.4971 -10.3366 -181.912 4.13916 -171.087
lowerback 7.12153 0.613941 6.73197
upperback 3.92548 1.83511 4.23751
thorax 0.124396 1.22271 0.482532
lowerneck -11.7745 -3.89628 -8.28035
upperneck 39.9069 0.656315 3.25648
head 16.3442 1.14547 3.52883
rclavicle -1.87852e-014 -3.81667e-014
rhumerus -32.1048 -14.1786 -77.4997
rradius 22.8681
rwrist -5.56547
rhand -21.1499 13.2354
rfingers 7.12502
rthumb 5.22962 -16.6801
lclavicle -1.87852e-014 -3.81667e-014
lhumerus -36.2511 9.8587 83.9709
lradius 27.1194
lwrist -1.29484
lhand -16.6018 22.8673
lfingers 7.12502
lthumb 9.61956 52.6277
rfemur 4.21612 -2.60096 32.4457
rtibia 18.8202
rfoot -12.8652 3.31159
rtoes 30.3052
lfemur -37.1015 7.39198 -9.35753
ltibia 74.6179
lfoot 5.22239 -6.91122
ltoes 9.49309
1888
root -0.631441 20.4918 -10.3931 -182.06 4.18475 -171.031
lowerback 7.1222 0.598035 6.74116
upperback 4.0057 1.81747 4.24246
thorax 0.206591 1.22088 0.485625
lowerneck -11.6777 -3.88424 -8.29286
upperneck 39.8685 0.677478 3.23351
head 16.2985 1.15092 3.52012
rclavicle 7.70291e-015 2.62396e-014
rhumerus -32.0579 -14.2237 -77.489
rradius 22.9911
rwrist -5.24736
rhand -21.0237 13.0637
rfingers 7.12502
rthumb 5.35146 -16.8487
lclavicle 7.70291e-015 2.62396e-014
lhumerus -36.5512 10.0983 83.8283
lradius 26.9656
lwrist -1.03115
lhand -16.7855 22.5012
lfingers 7.12502
lthumb 9.44234 52.2697
rfemur 4.69791 -2.48642 32.5236
rtibia 18.622
rfoot -13.0382 3.38252
rtoes 30.8845
lfemur -37.7 7.70054 -9.2847
ltibia 74.6768
lfoot 5.16782 -7.18363
ltoes 9.64558
1889
root -0.624926 20.4747 -10.4506 -182.265 4.10252 -171.006
lowerback 7.07916 0.489251 6.72074
upperback 4.13869 1.6734 4.26843
thorax 0.36104 1.16087 0.53726
lowerneck -11.7985 -3.84788 -8.22364
upperneck 39.9132 0.767632 3.11146
head 16.346 1.17673 3.472
rclavicle -1.09332e-015 2.82274e-014
rhumerus -31.7113 -13.7423 -77.7164
rradius 22.8735
rwrist -5.76262
rhand -21.3589 13.4771
rfingers 7.12502
rthumb 5.0278 -16.4433
lclavicle -1.09332e-015 2.82274e-014
lhumerus -36.8183 10.609 83.6697
lradius 26.8169
lwrist -0.959281
lhand -16.941 22.2163
lfingers 7.12502
lthumb 9.29232 51.9915
rfemur 5.37596 -2.30164 32.6186
rtibia 18.0903
rfoot -13.1845 3.04112
rtoes 30.1047
lfemur -38.1436 7.77 -9.25195
ltibia 74.6218
lfoot 5.10919 -7.60015
ltoes 8.82387
1890
root -0.622336 20.4663 -10.5036 -182.511 4.0958 -171.246
lowerback 7.2924 0.486551 6.57118
upperback 4.1289 1.67093 4.15721
thorax 0.231638 1.1505 0.499484
lowerneck -11.4153 -3.84346 -8.30174
upperneck 39.799 0.765818 3.14208
head 16.1916 1.18224 3.48745
rclavicle 2.45996e-014 6.95746e-014
rhumerus -31.7064 -13.749 -77.7543
rradius 22.7804
rwrist -5.93792
rhand -21.4888 13.5392
rfingers 7.12502
rthumb 4.90235 -16.3841
lclavicle 2.45996e-014 6.95746e-014
lhumerus -36.8892 11.0218 83.4559
lradius 26.1851
lwrist -1.0153
lhand -16.9746 21.6944
lfingers 7.12502
lthumb 9.25982 51.471
rfemur 6.17116 -2.23297 32.3969
rtibia 17.3719
rfoot -13.2199 2.66211
rtoes 28.3969
lfemur -38.5277 7.70771 -9.45176
ltibia 74.4293
lfoot 5.19826 -7.83238
ltoes 10.2748
1891
root -0.620244 20.4451 -10.556 -182.562 4.18231 -171.329
lowerback 7.38662 0.558569 6.61489
upperback 4.09102 1.7701 4.06699
thorax 0.148592 1.19449 0.372065
lowerneck -11.0613 -3.84985 -8.34367
upperneck 39.6552 0.747274 3.12821
head 16.0313 1.1782 3.47239
rclavicle -7.95139e-015 -2.70347e-014
rhumerus -31.7918 -13.9283 -77.7189
rradius 22.8453
rwrist -5.75428
rhand -21.4125 13.7338
rfingers 7.12502
rthumb 4.9761 -16.1878
lclavicle -7.95139e-015 -2.70347e-014
lhumerus -36.9399 11.2573 83.2461
lradius 25.6073
lwrist -0.999728
lhand -17.0226 21.1147
lfingers 7.12502
lthumb 9.21351 50.8934
rfemur 6.78005 -2.57877 32.2834
rtibia 17.032
rfoot -13.4696 2.5721
rtoes 25.1857
lfemur -39.2673 7.94857 -9.57039
ltibia 74.1919
lfoot 5.28819 -8.13624
ltoes 10.199
1892
root -0.61275 20.421 -10.611 -182.594 4.33993 -171.21
lowerback 7.35075 0.606703 6.68605
upperback 4.20728 1.843 4.10396
thorax 0.293098 1.24351 0.369877
lowerneck -11.3821 -3.86382 -8.26417
upperneck 39.681 0.711693 3.07554
head 16.1252 1.15154 3.43316
rclavicle 1.35174e-014 3.77691e-014
rhumerus -31.6665 -13.8738 -77.7272
rradius 23.0465
rwrist -5.56627
rhand -21.3238 14.4918
rfingers 7.12502
rthumb 5.06173 -15.4278
lclavicle 1.35174e-014 3.77691e-014
lhumerus -36.937 11.7297 83.0476
lradius 25.2808
lwrist -1.19992
lhand -17.0262 20.9981
lfingers 7.12502
lthumb 9.21001 50.777
rfemur 7.29277 -2.63456 32.4691
rtibia 16.9052
rfoot -13.9305 2.20936
rtoes 21.0838
lfemur -39.9193 8.3956 -9.51795
ltibia 73.7268
lfoot 5.34515 -8.73068
ltoes 7.67659
1893
root -0.60125 20.4446 -10.6698 -182.747 4.41194 -171.325
lowerback 7.43605 0.600544 6.47579
upperback 4.26439 1.82793 4.09376
thorax 0.297787 1.23443 0.475642
lowerneck -11.6198 -3.92851 -8.24993
upperneck 39.7678 0.610483 3.07616
head 16.2376 1.1009 3.42208
rclavicle 1.78906e-015 2.10712e-014
rhumerus -31.6589 -13.6957 -77.7653
rradius 23.2849
rwrist -5.61599
rhand -21.3517 14.5563
rfingers 7.12502
rthumb 5.03478 -15.3638
lclavicle 1.78906e-015 2.10712e-014
lhumerus -37.0904 12.6124 82.5831
lradius 25.0678
lwrist -2.54588
lhand -15.8328 21.7084
lfingers 7.12502
lthumb 10.3615 51.4331
rfemur 7.56156 -1.97439 32.4429
rtibia 16.579
rfoot -13.8507 2.19851
rtoes 24.2806
lfemur -40.1001 8.65912 -9.68244
ltibia 72.8616
lfoot 5.50933 -9.28276
ltoes 6.74431
1894
root -0.594129 20.4706 -10.7291 -182.79 4.40667 -171.264
lowerback 7.43908 0.61033 6.62687
upperback 4.22718 1.85005 4.0681
thorax 0.264396 1.24558 0.363096
lowerneck -11.1792 -3.86482 -8.22347
upperneck 39.7685 0.779998 2.99652
head 16.1183 1.19349 3.40801
rclavicle 8.99501e-015 1.07344e-014
rhumerus -31.6061 -13.3662 -77.9482
rradius 23.3537
rwrist -6.35313
rhand -21.5451 13.9743
rfingers 7.12502
rthumb 4.84805 -15.9503
lclavicle 8.99501e-015 1.07344e-014
lhumerus -37.3102 12.9745 82.2609
lradius 24.809
lwrist -3.55428
lhand -14.7368 22.2253
lfingers 7.12502
lthumb 11.4186 51.8943
rfemur 7.41117 -1.30202 32.5707
rtibia 16.5331
rfoot -13.7253 2.21282
rtoes 28.2636
lfemur -40.3467 8.85652 -9.66373
ltibia 71.8538
lfoot 5.87614 -9.75428
ltoes 6.51084
1895
root -0.593318 20.439 -10.7849 -182.78 4.46369 -171.072
lowerback 7.35161 0.662936 6.99697
upperback 4.24163 1.93688 4.03218
thorax 0.346015 1.29924 0.11867
lowerneck -11.3077 -3.90592 -8.10553
upperneck 39.9765 0.788237 2.93912
head 16.2602 1.2173 3.38149
rclavicle 6.85807e-015 -1.19271e-014
rhumerus -31.4563 -13.2807 -78.0686
rradius 23.2891
rwrist -6.79558
rhand -21.6441 13.8829
rfingers 7.12502
rthumb 4.75241 -16.0438
lclavicle 6.85807e-015 -1.19271e-014
lhumerus -37.3438 12.5446 82.4183
lradius 24.3047
lwrist -2.54137
lhand -15.3971 21.8829
lfingers 7.12502
lthumb 10.7817 51.5862
rfemur 7.64385 -1.42228 32.7963
rtibia 16.7283
rfoot -14.2571 2.06187
rtoes 26.3801
lfemur -40.8573 9.00321 -9.5109
ltibia 70.9671
lfoot 6.6154 -9.98106
ltoes 6.78274
1896
root -0.591427 20.4186 -10.8437 -182.895 4.47379 -171.108
lowerback 7.36194 0.657884 7.03361
upperback 4.2652 1.92683 3.95277
thorax 0.368657 1.29485 0.0172681
lowerneck -11.0909 -3.84986 -8.06339
upperneck 39.8955 0.820196 3.01009
head 16.1581 1.25419 3.40265
rclavicle -1.07841e-014 -1.51076e-014
rhumerus -31.4365 -13.4746 -78.0278
rradius 23.3115
rwrist -6.28723
rhand -21.5013 14.2835
rfingers 7.12502
rthumb 4.89034 -15.6401
lclavicle -1.07841e-014 -1.51076e-014
lhumerus -37.4475 12.5187 82.3681
lradius 23.8593
lwrist -1.96165
lhand -15.7191 21.9309
lfingers 7.12502
lthumb 10.4711 51.6501
rfemur 8.26246 -1.59028 32.7391
rtibia 16.6556
rfoot -14.817 1.95039
rtoes 24.9426
lfemur -41.1046 8.96848 -9.60355
ltibia 69.9649
lfoot 7.19042 -10.1191
ltoes 6.69364
